<?xml version="1.0" encoding="utf-8" ?>
<svg baseProfile="full" height="200mm" version="1.1" viewBox="0,0,200,200" width="200mm" xmlns="http://www.w3.org/2000/svg" xmlns:ev="http://www.w3.org/2001/xml-events" xmlns:xlink="http://www.w3.org/1999/xlink"><defs /><rect fill="#1a1a1a" height="200" width="200" x="0" y="0" /><text alignment-baseline="middle" fill="#e1ed5e" style="dominant-baseline: central; font-size:9.0px; font-family:Arial;" text-anchor="middle" x="100.0" y="100.0">2024</text><line stroke="#e1ed5e" stroke-width="0.3" x1="100.0" x2="100.0" y1="15.0" y2="10.0" /><path d="M 100.0 14.0 a86.0,86.0 0 0,1 42.35913384403234,11.155469271406648" fill="none" id="id13" stroke="none" /><text fill="#e1ed5e" style="font-size:6.75px; font-family:Arial;" text-anchor="middle"><textPath startOffset="22.145653131862478" xlink:href="#id13">January</textPath></text><line stroke="#e1ed5e" stroke-width="0.3" x1="143.13028292997686" x2="145.6673583964461" y1="26.7553504044142" y2="22.446841604673864" /><path d="M 143.63769802327073 25.89364864446614 a86.0,86.0 0 0,1 29.32050498858742,28.57503671076993" fill="none" id="id14" stroke="none" /><text fill="#e1ed5e" style="font-size:6.75px; font-family:Arial;" text-anchor="middle"><textPath startOffset="20.669276256404974" xlink:href="#id14">February</textPath></text><path d="M 114.91283532996326 85.21462403516908 l 18.809598107325208 -18.648833277558936 a47.48735478626134,47.48735478626134 0 0,0 0.5689735829836916,0.583817019978142 l -19.12695849145971 18.32319356551305" fill="#e1ff1b" stroke="none" /><path d="M 115.16444852881244 85.47280134310134 l 19.77237969682435 -18.941492480234043 a48.381145634435285,48.381145634435285 0 0,0 0.5693865667003378,0.6046688023536506 l -20.094622097260945 18.599282217935897" fill="#d5ff1c" stroke="none" /><path d="M 115.41159269507618 85.73525988315684 l 21.842650081616572 -20.217230823712942 a50.76302714387825,50.76302714387825 0 0,0 0.5864393855871924,0.6445996138199186 l -22.186487168045645 19.839293634335352" fill="#b7ff1f" stroke="none" /><path d="M 117.42321728460499 88.27688183743584 l 24.004705927658716 -16.15143744411653 a49.932591280156416,49.932591280156416 0 0,0 0.47239931374891536,0.7152727706544147 l -24.278429680328355 15.736984795123057" fill="#c2ff1e" stroke="none" /><path d="M 117.81537515405839 88.88188828441811 l 7.9188962422038465 -4.941976934168999 a30.334455190992596,30.334455190992596 0 0,0 0.27190077370175825,0.4441294797053836 l -8.002564980361006 4.805310338339061" fill="#ff2503" stroke="none" /><line stroke="#e1ed5e" stroke-width="0.3" x1="172.87174338648825" x2="177.1583165268699" y1="56.24261187166439" y2="53.66864786411523" /><path d="M 173.72905801456457 55.72781907015455 a86.0,86.0 0 0,1 12.242430191666344,42.057860355516425" fill="none" id="id15" stroke="none" /><text fill="#e1ed5e" style="font-size:6.75px; font-family:Arial;" text-anchor="middle"><textPath startOffset="22.145653131862474" xlink:href="#id15">March</textPath></text><path d="M 118.53625476483649 90.13048839642627 l 6.197301579788603 -3.299714026837768 a28.021015562563598,28.021015562563598 0 0,0 0.22242272349556455,0.42652489983813224 l -6.253032372259112 3.1928428838951373" fill="#ff0000" stroke="none" /><path d="M 120.35273937422433 94.82641323984039 l 28.128118176300593 -7.150057646265112 a50.022652471558246,50.022652471558246 0 0,0 0.20440797803811298,0.8340543047890288 l -28.246713680854995 6.666147516867988" fill="#c0ff1e" stroke="none" /><path d="M 120.43855184770803 95.1765574152323 l 50.7560149512167 -11.978281327023609 a73.15028549564667,73.15028549564667 0 0,0 0.27793325030992283,1.2246251829917814 l -50.95415906308429 11.1052218100928" fill="#3effb6" stroke="none" /><path d="M 120.65975698304385 96.23510406497455 l 53.245091252995216 -9.703029313606496 a75.12197816414783,75.12197816414783 0 0,0 0.2203047969325444,1.2706595249853532 l -53.40381086742 8.78757675570055" fill="#41ffcd" stroke="none" /><path d="M 120.7213421655516 96.59031103205396 l 62.16402649665483 -10.229066903838131 a84.0,84.0 0 0,0 0.22191403144693922,1.424847272274235 l -62.330462020240034 9.160431449632455" fill="#4dd2ff" stroke="none" /><path d="M 120.77682067341334 96.94652285012252 l 32.65274834210097 -4.798829547144819 a54.003495865061446,54.003495865061446 0 0,0 0.1269223164823185,0.9183466557848463 l -32.73031517513851 4.237594583159886" fill="#8fff24" stroke="none" /><path d="M 120.82617615685814 97.30363454192243 l 28.700903288702058 -3.7159065428243294 a49.940452847570185,49.940452847570185 0 0,0 0.10277724682474394,0.8511430405454056 l -28.760462621786466 3.222669825355511" fill="#c1ff1e" stroke="none" /><path d="M 120.9064616781168 98.02013634271609 l 28.80256860086232 -2.7276331924193307 a49.93143516730146,49.93143516730146 0 0,0 0.07348570354875775,0.8540152660200655 l -28.84514792710882 2.2327968790236032" fill="#c2ff1e" stroke="none" /><path d="M 120.93736805541906 98.37931529534042 l 16.62638257105449 -1.2869871635920507 a37.67611865388092,37.67611865388092 0 0,0 0.0443789492462846,0.645260182200468 l -16.64602548146584 1.0013835572372485" fill="#ff950d" stroke="none" /><path d="M 120.96210409425399 98.7389718711861 l 7.45137647095545 -0.4482563050926095 a28.46484728758491,28.46484728758491 0 0,0 0.02515534866756974,0.48800704384544896 l -7.457973409079592 0.3202774678704299" fill="#ff0701" stroke="none" /><path d="M 120.98066250479742 99.09900007780936 l 49.23214209765343 -2.114240014542985 a70.27751846798532,70.27751846798532 0 0,0 0.0414145851488621,1.2057404593330703 l -49.26118136979914 1.2687932906457948" fill="#3aff94" stroke="none" /><path d="M 120.99303781780057 99.45929381324524 l 17.413319584400014 -0.4485053431971286 a38.41909458012458,38.41909458012458 0 0,0 0.01132186641554382,0.6594419584324777 l -17.418452882414226 0.14951646879558447" fill="#ffa00e" stroke="none" /><line stroke="#e1ed5e" stroke-width="0.3" x1="184.99686870605535" x2="189.99668451229388" y1="99.2704041080226" y2="99.22748670261217" /><path d="M 185.99683186730306 99.26182062694052 a86.0,86.0 0 0,1 -10.086455211305974,41.156179273409016" fill="none" id="id16" stroke="none" /><text fill="#e1ed5e" style="font-size:6.75px; font-family:Arial;" text-anchor="middle"><textPath startOffset="21.40746469413373" xlink:href="#id16">April</textPath></text><path d="M 120.99922638620191 99.81974689727618 l 28.961409855948837 -0.24859887168135986 a49.962476797457285,49.962476797457285 0 0,0 0.0,0.8577039488103699 l -28.961409855948837 -0.24859887168135636" fill="#c1ff1e" stroke="none" /><path d="M 120.98066250479742 100.90099992219065 l 16.218090483061705 0.6964745874911307 a37.23303840221533,37.23303840221533 0 0,0 -0.032904095830833695,0.6383306687183287 l -16.2037447977743 -0.97477704958619" fill="#ff8e0d" stroke="none" /><path d="M 120.86939407059847 102.33845913500097 l 11.443211725927329 1.28223574214571 a32.51482622981505,32.51482622981505 0 0,0 -0.06691537882296059,0.554155328637496 l -11.419514260844705 -1.4784847477066145" fill="#ff4706" stroke="none" /><line stroke="#e1ed5e" stroke-width="0.3" x1="174.33088141563837" x2="178.70328620479359" y1="141.23008692659167" y2="143.65538615756765" /><path d="M 175.20536237346943 141.71514677278685 a86.0,86.0 0 0,1 -30.301960400862466,31.631185727798858" fill="none" id="id17" stroke="none" /><text fill="#e1ed5e" style="font-size:6.75px; font-family:Arial;" text-anchor="middle"><textPath startOffset="22.145653131862474" xlink:href="#id17">May</textPath></text><line stroke="#e1ed5e" stroke-width="0.3" x1="143.1302829299769" x2="145.66735839644613" y1="173.24464959558577" y2="177.55315839532614" /><path d="M 143.63769802327073 174.10635135553383 a86.0,86.0 0 0,1 -40.68552437913181,11.842963189579606" fill="none" id="id18" stroke="none" /><text fill="#e1ed5e" style="font-size:6.75px; font-family:Arial;" text-anchor="middle"><textPath startOffset="21.407464694133747" xlink:href="#id18">June</textPath></text><line stroke="#e1ed5e" stroke-width="0.3" x1="101.45913802915013" x2="101.54496967792366" y1="184.9874750549273" y2="189.98673829345242" /><path d="M 101.47630435890484 185.9873277026323 a86.0,86.0 0 0,1 -42.54439059252881,-10.42667462771756" fill="none" id="id19" stroke="none" /><text fill="#e1ed5e" style="font-size:6.75px; font-family:Arial;" text-anchor="middle"><textPath startOffset="22.145653131862474" xlink:href="#id19">July</textPath></text><line stroke="#e1ed5e" stroke-width="0.3" x1="58.13341422392154" x2="55.67067388415222" y1="173.97424548756322" y2="178.32567169271397" /><path d="M 57.64086615596768 174.84453072859336 a86.0,86.0 0 0,1 -31.369924170532247,-30.572349798747897" fill="none" id="id20" stroke="none" /><text fill="#e1ed5e" style="font-size:6.75px; font-family:Arial;" text-anchor="middle"><textPath startOffset="22.145653131862474" xlink:href="#id20">August</textPath></text><line stroke="#e1ed5e" stroke-width="0.3" x1="26.387840678322732" x2="22.057713659400548" y1="142.50000000000003" y2="145.00000000000006" /><path d="M 25.521815274538298 143.00000000000003 a86.0,86.0 0 0,1 -11.493303480769221,-40.785679425670985" fill="none" id="id21" stroke="none" /><text fill="#e1ed5e" style="font-size:6.75px; font-family:Arial;" text-anchor="middle"><textPath startOffset="21.40746469413373" xlink:href="#id21">September</textPath></text><line stroke="#e1ed5e" stroke-width="0.3" x1="15.003131293944662" x2="10.003315487706104" y1="100.72959589197737" y2="100.7725132973878" /><path d="M 14.003168132696942 100.73817937305945 a86.0,86.0 0 0,1 10.791469493833604,-42.45332614584628" fill="none" id="id22" stroke="none" /><text fill="#e1ed5e" style="font-size:6.75px; font-family:Arial;" text-anchor="middle"><textPath startOffset="22.145653131862435" xlink:href="#id22">October</textPath></text><line stroke="#e1ed5e" stroke-width="0.3" x1="26.387840678322718" x2="22.05771365940052" y1="57.49999999999999" y2="54.99999999999999" /><path d="M 25.521815274538284 56.99999999999999 a86.0,86.0 0 0,1 29.574782752854787,-30.34633250058573" fill="none" id="id23" stroke="none" /><text fill="#e1ed5e" style="font-size:6.75px; font-family:Arial;" text-anchor="middle"><textPath startOffset="21.40746469413373" xlink:href="#id23">November</textPath></text><line stroke="#e1ed5e" stroke-width="0.3" x1="56.869717070023135" x2="54.33264160355391" y1="26.7553504044142" y2="22.446841604673864" /><path d="M 56.362301976729285 25.89364864446614 a86.0,86.0 0 0,1 42.16139366436587,-11.88097634709845" fill="none" id="id24" stroke="none" /><text fill="#e1ed5e" style="font-size:6.75px; font-family:Arial;" text-anchor="middle"><textPath startOffset="22.145653131862474" xlink:href="#id24">December</textPath></text></svg>