<?xml version="1.0" encoding="utf-8" ?>
<svg baseProfile="full" height="200mm" version="1.1" viewBox="0,0,200,200" width="200mm" xmlns="http://www.w3.org/2000/svg" xmlns:ev="http://www.w3.org/2001/xml-events" xmlns:xlink="http://www.w3.org/1999/xlink"><defs /><rect fill="#1a1a1a" height="200" width="200" x="0" y="0" /><text alignment-baseline="middle" fill="#e1ed5e" style="dominant-baseline: central; font-size:9.0px; font-family:Arial;" text-anchor="middle" x="100.0" y="100.0">2023</text><line stroke="#e1ed5e" stroke-width="0.3" x1="100.0" x2="100.0" y1="15.0" y2="10.0" /><path d="M 100.0 14.0 a86.0,86.0 0 0,1 42.46469731375804,11.215312516191453" fill="none" id="id1" stroke="none" /><text fill="#e1ed5e" style="font-size:6.75px; font-family:Arial;" text-anchor="middle"><textPath startOffset="22.20632615414155" xlink:href="#id1">January</textPath></text><line stroke="#e1ed5e" stroke-width="0.3" x1="143.23703022742887" x2="145.7803849466894" y1="26.81831364943548" y2="22.513508569990506" /><path d="M 143.74570117128098 25.957352633546492 a86.0,86.0 0 0,1 28.547481713284135,27.462654790039103" fill="none" id="id2" stroke="none" /><text fill="#e1ed5e" style="font-size:6.75px; font-family:Arial;" text-anchor="middle"><textPath startOffset="19.985693538727396" xlink:href="#id2">February</textPath></text><line stroke="#e1ed5e" stroke-width="0.3" x1="172.23445277983987" x2="176.4835382374775" y1="55.19839476539836" y2="52.563006222186495" /><path d="M 173.08426987136738 54.67131705675599 a86.0,86.0 0 0,1 12.851231095245387,41.99856678651699" fill="none" id="id3" stroke="none" /><text fill="#e1ed5e" style="font-size:6.75px; font-family:Arial;" text-anchor="middle"><textPath startOffset="22.20632615414155" xlink:href="#id3">March</textPath></text><line stroke="#e1ed5e" stroke-width="0.3" x1="184.98032266829074" x2="189.97916517819016" y1="98.17113171792111" y2="98.06355123074" /><path d="M 185.9800911702706 98.14961562048488 a86.0,86.0 0 0,1 -9.607161424134198,41.387399972396054" fill="none" id="id4" stroke="none" /><text fill="#e1ed5e" style="font-size:6.75px; font-family:Arial;" text-anchor="middle"><textPath startOffset="21.466115282336823" xlink:href="#id4">April</textPath></text><line stroke="#e1ed5e" stroke-width="0.3" x1="174.80103733775053" x2="179.2010983576182" y1="140.37084112569926" y2="142.7455964860345" /><path d="M 175.68104954172406 140.8457921977663 a86.0,86.0 0 0,1 -30.038265399797805,32.042727171017184" fill="none" id="id5" stroke="none" /><text fill="#e1ed5e" style="font-size:6.75px; font-family:Arial;" text-anchor="middle"><textPath startOffset="22.206326154141568" xlink:href="#id5">May</textPath></text><line stroke="#e1ed5e" stroke-width="0.3" x1="143.8653032363475" x2="146.44561519142675" y1="172.8068346515853" y2="177.08958963109032" /><path d="M 144.38136562736335 173.6633856474863 a86.0,86.0 0 0,1 -40.68145358897372,12.25698825130547" fill="none" id="id6" stroke="none" /><text fill="#e1ed5e" style="font-size:6.75px; font-family:Arial;" text-anchor="middle"><textPath startOffset="21.466115282336833" xlink:href="#id6">June</textPath></text><line stroke="#e1ed5e" stroke-width="0.3" x1="102.19456741930631" x2="102.32365962044197" y1="184.97166512339345" y2="189.96999836594603" /><path d="M 102.22038585953345 185.97133177190398 a86.0,86.0 0 0,1 -42.740103519485714,-10.115201625700543" fill="none" id="id7" stroke="none" /><text fill="#e1ed5e" style="font-size:6.75px; font-family:Arial;" text-anchor="middle"><textPath startOffset="22.20632615414155" xlink:href="#id7">July</textPath></text><line stroke="#e1ed5e" stroke-width="0.3" x1="58.666819895761336" x2="56.23545636021788" y1="174.27360380694188" y2="178.64263932499728" /><path d="M 58.180547188652646 175.14741091055294 a86.0,86.0 0 0,1 -31.652253787137756,-30.449443065178592" fill="none" id="id8" stroke="none" /><text fill="#e1ed5e" style="font-size:6.75px; font-family:Arial;" text-anchor="middle"><textPath startOffset="22.20632615414155" xlink:href="#id8">August</textPath></text><line stroke="#e1ed5e" stroke-width="0.3" x1="26.63291911575756" x2="22.317208475507996" y1="142.92168965132927" y2="145.44649492493687" /><path d="M 25.769776987707644 143.4266507060508 a86.0,86.0 0 0,1 -11.730757126820373,-40.83630448921669" fill="none" id="id9" stroke="none" /><text fill="#e1ed5e" style="font-size:6.75px; font-family:Arial;" text-anchor="middle"><textPath startOffset="21.46611528233685" xlink:href="#id9">September</textPath></text><path d="M 79.58551787078972 104.9243191809786 l -9.974500162169292 2.4060185391116997 a31.260583740492763,31.260583740492763 0 0,0 -0.1216772582680175,-0.5241824440289069 l 10.014437986367865 -2.2339674377342185" fill="#ff5407" stroke="none" /><path d="M 79.50377843672027 104.57218783832718 l -16.21265276138139 3.6166321462592506 a37.61114498288674,37.61114498288674 0 0,0 -0.13551825903831202,-0.6330961898755023 l 16.27250505914414 -3.3370221369675845" fill="#ffaf10" stroke="none" /><path d="M 79.4281124754447 104.21870165774334 l -21.682024521267206 4.446358783651723 a43.133239567984376,43.133239567984376 0 0,0 -0.14289439846291946,-0.7286154592300855 l 21.75534885270579 -4.072479597353683" fill="#fff917" stroke="none" /><path d="M 79.35854240842038 103.8639653848113 l -6.926419260007557 1.2965869363933495 a28.046731259884226,28.046731259884226 0 0,0 -0.08474594662839724,-0.4753002742198774 l 6.947711648975143 -1.1771679114402582" fill="#ff2403" stroke="none" /><path d="M 79.29508885075956 103.50808413554451 l -11.40334767281712 1.9320973065163667 a32.565869537090215,32.565869537090215 0 0,0 -0.08888659569357597,-0.553496916232788 l 11.434916022871986 -1.735521160590365" fill="#ff6709" stroke="none" /><line stroke="#e1ed5e" stroke-width="0.3" x1="15.007084014347285" x2="10.007500721073583" y1="101.09737516637583" y2="101.16192664675087" /><path d="M 14.007167355692545 101.11028546245083 a86.0,86.0 0 0,1 10.666146001902534,-42.60595125391555" fill="none" id="id10" stroke="none" /><text fill="#e1ed5e" style="font-size:6.75px; font-family:Arial;" text-anchor="middle"><textPath startOffset="22.20632615414155" xlink:href="#id10">October</textPath></text><path d="M 79.12142395522702 97.74499172005258 l -9.895194211516213 -1.0687388273417808 a30.952741891795036,30.952741891795036 0 0,0 0.061772308869340736,-0.5292274186792082 l 9.875331549643283 1.2389099843458506" fill="#ff4f07" stroke="none" /><path d="M 79.21141760316559 97.0276538004421 l -18.704215046297453 -2.67432388833987 a39.89443486209326,39.89443486209326 0 0,0 0.10304942742086683,-0.6789669728727619 l 18.65540972543728 2.9958899736047235" fill="#ffce13" stroke="none" /><path d="M 79.32604984820605 96.31383870115002 l -36.787495309887674 -6.559203272586318 a58.367672642889,58.367672642889 0 0,0 0.1848706425194255,-0.9875863646431676 l 36.66913894345839 7.191467714692059" fill="#51ff2b" stroke="none" /><path d="M 79.3925641242962 95.95851677861259 l -24.142029688484975 -4.73467968090506 a45.60192653351491,45.60192653351491 0 0,0 0.15769733392840685,-0.7689882053031283 l 24.05695305864157 5.149543542371591" fill="#e6ff1a" stroke="none" /><path d="M 79.54389044137918 95.25157060432595 l -9.513318239356817 -2.208304558044693 a30.76625992611092,30.76625992611092 0 0,0 0.12418903335163498,-0.5148437192686215 l 9.473896405744368 2.3717335089727114" fill="#ff4d07" stroke="none" /><path d="M 79.71946130924805 94.55025226153421 l -25.743230031691667 -6.917671753462405 a47.65648279412052,47.65648279412052 0 0,0 0.2197037144165462,-0.7903911560000869 l 25.62033954670876 7.359774212881434" fill="#ccff1d" stroke="none" /><path d="M 79.81627453868168 94.20196356495316 l -26.725217464647635 -7.6771646984370125 a48.80604442094622,48.80604442094622 0 0,0 0.23890350246558795,-0.8054638450210942 l 26.58910806507034 8.136057930204647" fill="#beff1f" stroke="none" /><path d="M 80.38941819471856 92.48833698450439 l -5.535527655226915 -2.1203357846233186 a26.92772218152438,26.92772218152438 0 0,0 0.16952469330435158,-0.43142185351734774 l 5.498209412040872 2.2153066430364294" fill="#ff1302" stroke="none" /><path d="M 80.52162464483688 92.15188598940014 l -5.679555733180372 -2.288373650820957 a27.123235034854833,27.123235034854833 0 0,0 0.17821039125230465,-0.43155059793888895 l 5.639323655041868 2.385798819213157" fill="#ff1602" stroke="none" /><path d="M 81.26839172434947 90.50648371742162 l -56.19482482695157 -28.480548847735136 a84.0,84.0 0 0,0 0.6647622673595439,-1.284109110958658 l 55.69625312643191 29.44363068095413" fill="#4dd2ff" stroke="none" /><line stroke="#e1ed5e" stroke-width="0.3" x1="26.266209847984243" x2="21.928928074336255" y1="57.711370442889674" y2="55.22380399835377" /><path d="M 25.398753493254645 57.213857153982495 a86.0,86.0 0 0,1 29.58750427330803,-30.492523968695096" fill="none" id="id11" stroke="none" /><text fill="#e1ed5e" style="font-size:6.75px; font-family:Arial;" text-anchor="middle"><textPath startOffset="21.46611528233685" xlink:href="#id11">November</textPath></text><path d="M 83.17141714833178 87.43820079747576 l -3.7747074334315935 -2.8176535864600645 a25.710370255223573,25.710370255223573 0 0,0 0.26778459812208644,-0.3523731417709029 l 3.7256468950853985 2.882211504111994" fill="#ff0000" stroke="none" /><path d="M 84.31358615837235 86.03803664274999 l -17.935298266812545 -15.963621751330972 a45.01066728225387,45.01066728225387 0 0,0 0.5201011741025819,-0.5743087067341577 l 17.657853452093917 16.269983245334686" fill="#edff19" stroke="none" /><path d="M 84.5562425177563 85.77008943001954 l -5.4606455954352855 -5.03145031685079 a28.42523687230816,28.42523687230816 0 0,0 0.33464987788404227,-0.35698115693873245 l 5.373228395580787 5.124700890667572" fill="#ff2a04" stroke="none" /><path d="M 86.10567301691215 84.25364557470407 l -5.949753521697391 -6.742818692106169 a29.99250637384077,29.99250637384077 0 0,0 0.3900542611820041,-0.3382512116385167 l 5.832805461868614 6.844234897164365" fill="#ff4106" stroke="none" /><path d="M 86.37877921826538 84.01681056812374 l -3.8116134462565263 -4.4725609201120795 a26.87641031989746,26.87641031989746 0 0,0 0.35469497875018885,-0.2970468442217713 l 3.734060930547227 4.537508921727663" fill="#ff1202" stroke="none" /><line stroke="#e1ed5e" stroke-width="0.3" x1="56.762969772571076" x2="54.21961505331055" y1="26.818313649435495" y2="22.513508569990535" /><path d="M 56.25429882871897 25.957352633546506 a86.0,86.0 0 0,1 42.265352541879196,-11.944610805530505" fill="none" id="id12" stroke="none" /><text fill="#e1ed5e" style="font-size:6.75px; font-family:Arial;" text-anchor="middle"><textPath startOffset="22.20632615414155" xlink:href="#id12">December</textPath></text></svg>